<svg width="287" height="80" viewBox="0 0 287 80" fill="none" xmlns="http://www.w3.org/2000/svg">
<g filter="url(#filter0_di_230_21251)">
<path d="M23.5 19C23.5 10.1634 30.6634 3 39.5 3H247.5C256.337 3 263.5 10.1634 263.5 19V31C263.5 39.8366 256.337 47 247.5 47H39.5C30.6634 47 23.5 39.8366 23.5 31V19Z" fill="#F7F8FF" shape-rendering="crispEdges"/>
<path d="M23.5 19C23.5 10.1634 30.6634 3 39.5 3H247.5C256.337 3 263.5 10.1634 263.5 19V31C263.5 39.8366 256.337 47 247.5 47H39.5C30.6634 47 23.5 39.8366 23.5 31V19Z" fill="url(#paint0_linear_230_21251)" fill-opacity="0.65" shape-rendering="crispEdges"/>
<path d="M24 19C24 10.4396 30.9396 3.5 39.5 3.5H247.5C256.06 3.5 263 10.4396 263 19V31C263 39.5604 256.06 46.5 247.5 46.5H39.5C30.9396 46.5 24 39.5604 24 31V19Z" stroke="#8B8A9E" stroke-opacity="0.15" shape-rendering="crispEdges"/>
<g clip-path="url(#clip0_230_21251)">
<g clip-path="url(#clip1_230_21251)">
<path d="M53.6166 28.8585L50.9423 31.6526C50.8842 31.7133 50.8138 31.7617 50.7356 31.7948C50.6575 31.8278 50.5732 31.8449 50.488 31.8448H37.8105C37.75 31.8448 37.6908 31.8276 37.6402 31.7953C37.5896 31.763 37.5498 31.717 37.5257 31.6629C37.5016 31.6089 37.4942 31.5492 37.5045 31.4911C37.5148 31.433 37.5422 31.3791 37.5835 31.336L40.2598 28.542C40.3178 28.4814 40.3879 28.4331 40.4658 28.4001C40.5437 28.367 40.6278 28.3499 40.7127 28.3497H53.3895C53.45 28.3497 53.5092 28.3669 53.5598 28.3993C53.6103 28.4316 53.6501 28.4776 53.6743 28.5316C53.6984 28.5857 53.7058 28.6454 53.6955 28.7035C53.6852 28.7616 53.6578 28.8154 53.6166 28.8585ZM50.9423 23.2321C50.8842 23.1714 50.8138 23.123 50.7356 23.0899C50.6575 23.0569 50.5732 23.0398 50.488 23.0399H37.8105C37.75 23.0399 37.6908 23.0571 37.6402 23.0894C37.5896 23.1217 37.5498 23.1677 37.5257 23.2217C37.5016 23.2758 37.4942 23.3355 37.5045 23.3936C37.5148 23.4517 37.5422 23.5056 37.5835 23.5487L40.2598 26.3427C40.3178 26.4033 40.3879 26.4515 40.4658 26.4846C40.5437 26.5177 40.6278 26.5348 40.7127 26.535H53.3895C53.45 26.535 53.5092 26.5177 53.5598 26.4854C53.6103 26.4531 53.6501 26.4071 53.6743 26.3531C53.6984 26.299 53.7058 26.2393 53.6955 26.1812C53.6852 26.1231 53.6578 26.0692 53.6166 26.0261L50.9423 23.2321ZM37.8105 21.2251H50.488C50.5732 21.2251 50.6575 21.2081 50.7356 21.175C50.8138 21.1419 50.8842 21.0935 50.9423 21.0329L53.6166 18.2388C53.6578 18.1957 53.6852 18.1418 53.6955 18.0837C53.7058 18.0257 53.6984 17.9659 53.6743 17.9119C53.6501 17.8578 53.6103 17.8118 53.5598 17.7795C53.5092 17.7472 53.45 17.73 53.3895 17.73H40.7127C40.6278 17.7301 40.5437 17.7473 40.4658 17.7803C40.3879 17.8134 40.3178 17.8617 40.2598 17.9222L37.5842 20.7163C37.5429 20.7593 37.5155 20.8132 37.5052 20.8712C37.4949 20.9292 37.5023 20.9889 37.5263 21.0429C37.5503 21.0969 37.59 21.1429 37.6405 21.1753C37.691 21.2076 37.75 21.2249 37.8105 21.2251Z" fill="url(#paint1_linear_230_21251)"/>
</g>
</g>
<path d="M236.517 24.9667L239.267 27.7167L245.683 21.3" stroke="#30DF98" stroke-width="1.1" stroke-linecap="round" stroke-linejoin="round"/>
</g>
<g filter="url(#filter1_di_230_21251)">
<path d="M10.5 44C10.5 35.1634 17.6634 28 26.5 28H260.5C269.337 28 276.5 35.1634 276.5 44V58.0021C276.5 66.8386 269.337 74.0021 260.5 74.0021H26.5C17.6634 74.0021 10.5 66.8386 10.5 58.0021V44Z" fill="#F7F8FF" shape-rendering="crispEdges"/>
<path d="M10.5 44C10.5 35.1634 17.6634 28 26.5 28H260.5C269.337 28 276.5 35.1634 276.5 44V58.0021C276.5 66.8386 269.337 74.0021 260.5 74.0021H26.5C17.6634 74.0021 10.5 66.8386 10.5 58.0021V44Z" fill="url(#paint2_linear_230_21251)" fill-opacity="0.65" shape-rendering="crispEdges"/>
<path d="M11 44C11 35.4396 17.9396 28.5 26.5 28.5H260.5C269.06 28.5 276 35.4396 276 44V58.0021C276 66.5625 269.06 73.5021 260.5 73.5021H26.5C17.9396 73.5021 11 66.5625 11 58.0021V44Z" stroke="#8B8A9E" stroke-opacity="0.15" shape-rendering="crispEdges"/>
<path d="M42.2306 53.1785C41.0284 58.0005 36.1446 60.9351 31.322 59.7326C26.5014 58.5304 23.5668 53.6463 24.7696 48.8246C25.9712 44.002 30.8551 41.0672 35.6762 42.2694C40.4985 43.4715 43.4328 48.3562 42.2306 53.1785Z" fill="#F7931A"/>
<path d="M37.4685 49.7189C37.6477 48.5212 36.7357 47.8774 35.4888 47.4479L35.8933 45.8255L34.9057 45.5793L34.512 47.159C34.2523 47.0943 33.9857 47.0333 33.7207 46.9728L34.1173 45.3827L33.1303 45.1366L32.7255 46.7585C32.5106 46.7095 32.2997 46.6611 32.0949 46.6102L32.096 46.6052L30.7341 46.2651L30.4714 47.3199C30.4714 47.3199 31.2041 47.4878 31.1886 47.4982C31.5886 47.5981 31.6609 47.8628 31.6488 48.0726L31.1881 49.9209C31.2156 49.9279 31.2514 49.938 31.2907 49.9538C31.2578 49.9456 31.2227 49.9366 31.1864 49.9279L30.5406 52.5171C30.4916 52.6386 30.3676 52.8209 30.088 52.7517C30.0978 52.766 29.3702 52.5725 29.3702 52.5725L28.8799 53.703L30.1651 54.0233C30.4041 54.0833 30.6384 54.146 30.8691 54.2051L30.4604 55.846L31.4468 56.0922L31.8516 54.4686C32.1211 54.5418 32.3827 54.6093 32.6386 54.6728L32.2353 56.2888L33.2228 56.5349L33.6315 54.897C35.3156 55.2157 36.5819 55.0872 37.1149 53.564C37.5444 52.3376 37.0935 51.6302 36.2075 51.1689C36.8528 51.0201 37.3388 50.5957 37.4685 49.7189ZM35.2121 52.883C34.9069 54.1094 32.842 53.4464 32.1725 53.2802L32.7149 51.1062C33.3843 51.2733 35.531 51.6041 35.2121 52.883ZM35.5175 49.7012C35.2391 50.8168 33.5204 50.25 32.9629 50.111L33.4546 48.1393C34.0121 48.2782 35.8075 48.5376 35.5175 49.7012Z" fill="#F7F8FF"/>
<path d="M248.7 51.6008L251.7 54.6008L258.7 47.6008" stroke="#30DF98" stroke-width="1.2" stroke-linecap="round" stroke-linejoin="round"/>
</g>
<defs>
<filter id="filter0_di_230_21251" x="19.5" y="-1" width="248" height="53.5" filterUnits="userSpaceOnUse" color-interpolation-filters="sRGB">
<feFlood flood-opacity="0" result="BackgroundImageFix"/>
<feColorMatrix in="SourceAlpha" type="matrix" values="0 0 0 0 0 0 0 0 0 0 0 0 0 0 0 0 0 0 127 0" result="hardAlpha"/>
<feOffset dy="1.5"/>
<feGaussianBlur stdDeviation="2"/>
<feComposite in2="hardAlpha" operator="out"/>
<feColorMatrix type="matrix" values="0 0 0 0 0.556863 0 0 0 0 0.615098 0 0 0 0 0.945098 0 0 0 0.5 0"/>
<feBlend mode="normal" in2="BackgroundImageFix" result="effect1_dropShadow_230_21251"/>
<feBlend mode="normal" in="SourceGraphic" in2="effect1_dropShadow_230_21251" result="shape"/>
<feColorMatrix in="SourceAlpha" type="matrix" values="0 0 0 0 0 0 0 0 0 0 0 0 0 0 0 0 0 0 127 0" result="hardAlpha"/>
<feOffset dy="-4"/>
<feGaussianBlur stdDeviation="2"/>
<feComposite in2="hardAlpha" operator="arithmetic" k2="-1" k3="1"/>
<feColorMatrix type="matrix" values="0 0 0 0 0.501961 0 0 0 0 0.607843 0 0 0 0 0.976471 0 0 0 0.1 0"/>
<feBlend mode="normal" in2="shape" result="effect2_innerShadow_230_21251"/>
</filter>
<filter id="filter1_di_230_21251" x="6.5" y="24" width="274" height="55.5021" filterUnits="userSpaceOnUse" color-interpolation-filters="sRGB">
<feFlood flood-opacity="0" result="BackgroundImageFix"/>
<feColorMatrix in="SourceAlpha" type="matrix" values="0 0 0 0 0 0 0 0 0 0 0 0 0 0 0 0 0 0 127 0" result="hardAlpha"/>
<feOffset dy="1.5"/>
<feGaussianBlur stdDeviation="2"/>
<feComposite in2="hardAlpha" operator="out"/>
<feColorMatrix type="matrix" values="0 0 0 0 0.556863 0 0 0 0 0.615098 0 0 0 0 0.945098 0 0 0 0.5 0"/>
<feBlend mode="normal" in2="BackgroundImageFix" result="effect1_dropShadow_230_21251"/>
<feBlend mode="normal" in="SourceGraphic" in2="effect1_dropShadow_230_21251" result="shape"/>
<feColorMatrix in="SourceAlpha" type="matrix" values="0 0 0 0 0 0 0 0 0 0 0 0 0 0 0 0 0 0 127 0" result="hardAlpha"/>
<feOffset dy="-4"/>
<feGaussianBlur stdDeviation="2"/>
<feComposite in2="hardAlpha" operator="arithmetic" k2="-1" k3="1"/>
<feColorMatrix type="matrix" values="0 0 0 0 0.501961 0 0 0 0 0.607843 0 0 0 0 0.976471 0 0 0 0.1 0"/>
<feBlend mode="normal" in2="shape" result="effect2_innerShadow_230_21251"/>
</filter>
<linearGradient id="paint0_linear_230_21251" x1="143.5" y1="3" x2="143.5" y2="47" gradientUnits="userSpaceOnUse">
<stop stop-color="#F1F3FD"/>
<stop offset="1" stop-color="#F1F3FD"/>
</linearGradient>
<linearGradient id="paint1_linear_230_21251" x1="38.8675" y1="32.1812" x2="51.7742" y2="17.2462" gradientUnits="userSpaceOnUse">
<stop offset="0.08" stop-color="#9945FF"/>
<stop offset="0.3" stop-color="#8752F3"/>
<stop offset="0.5" stop-color="#5497D5"/>
<stop offset="0.6" stop-color="#43B4CA"/>
<stop offset="0.72" stop-color="#28E0B9"/>
<stop offset="1" stop-color="#19FB9B"/>
</linearGradient>
<linearGradient id="paint2_linear_230_21251" x1="143.5" y1="28" x2="143.5" y2="74.0021" gradientUnits="userSpaceOnUse">
<stop stop-color="#F1F3FD"/>
<stop offset="1" stop-color="#F1F3FD"/>
</linearGradient>
<clipPath id="clip0_230_21251">
<rect width="16" height="16" fill="white" transform="translate(37.5 17)"/>
</clipPath>
<clipPath id="clip1_230_21251">
<rect width="16.2" height="14.1149" fill="white" transform="translate(37.5 17.73)"/>
</clipPath>
</defs>
</svg>
