<svg width="20" height="20" viewBox="0 0 20 20" fill="none" xmlns="http://www.w3.org/2000/svg">
<mask id="mask0_1565_18" style="mask-type:alpha" maskUnits="userSpaceOnUse" x="0" y="0" width="20" height="20">
<circle cx="10" cy="10" r="10" fill="#D9D9D9"/>
</mask>
<g mask="url(#mask0_1565_18)">
<circle cx="10" cy="10" r="10" fill="#2C2C36"/>
<path fillRule="evenodd" clipRule="evenodd" d="M19.4629 5.57259C20.2152 5.57259 20.9208 5.67004 21.5742 5.85077C20.9346 4.41022 19.6064 4 18.1283 4C16.6474 4 15.3169 4.41183 14.6787 5.85926C15.3273 5.67217 16.0299 5.57259 16.7796 5.57259H19.4629ZM16.6076 7.01884C13.0353 7.01884 11 9.73437 11 13.0841V16.5252C11 16.8602 11.2896 17.1252 11.6468 17.1252H24.583C24.9402 17.1252 25.2298 16.8602 25.2298 16.5252V13.0841C25.2298 9.73437 22.863 7.01884 19.2908 7.01884H16.6076ZM18.1099 13.1139C19.3601 13.1139 20.3737 12.1345 20.3737 10.9264C20.3737 9.71823 19.3601 8.73884 18.1099 8.73884C16.8596 8.73884 15.846 9.71823 15.846 10.9264C15.846 12.1345 16.8596 13.1139 18.1099 13.1139ZM11 19.1478C11 18.8128 11.2896 18.5412 11.6468 18.5412H24.583C24.9402 18.5412 25.2298 18.8128 25.2298 19.1478V22.7869C25.2298 23.4568 24.6507 24 23.9362 24H12.2936C11.5792 24 11 23.4568 11 22.7869V19.1478Z" fill="#E33E3F"/>
<path d="M-6.63728 16.6273C-4.08924 16.6273 -2.17437 14.4114 -1.0316 12.6603C-1.17059 13.0477 -1.24782 13.4351 -1.24782 13.807C-1.24782 14.8298 -0.660978 15.5581 0.497201 15.5581C2.08779 15.5581 3.78647 14.1634 4.66671 12.6603C4.60492 12.8773 4.57406 13.0787 4.57406 13.2647C4.57406 13.9775 4.97555 14.4269 5.79403 14.4269C8.37295 14.4269 10.9673 9.85551 10.9673 5.85754C10.9673 2.74281 9.39214 0 5.43885 0C-1.51032 0 -9 8.49187 -9 13.9775C-9 16.1314 -7.8418 16.6273 -6.63728 16.6273ZM3.04523 5.51663C3.04523 4.74182 3.47764 4.19946 4.11076 4.19946C4.72847 4.19946 5.16088 4.74182 5.16088 5.51663C5.16088 6.29143 4.72847 6.84928 4.11076 6.84928C3.47764 6.84928 3.04523 6.29143 3.04523 5.51663ZM6.34995 5.51663C6.34995 4.74182 6.78236 4.19946 7.41548 4.19946C8.03319 4.19946 8.4656 4.74182 8.4656 5.51663C8.4656 6.29143 8.03319 6.84928 7.41548 6.84928C6.78236 6.84928 6.34995 6.29143 6.34995 5.51663Z" fill="#AB9FF2"/>
</g>
</svg>
