<svg xmlns="http://www.w3.org/2000/svg" width="18" height="18" viewBox="0 0 18 18" fill="none">
  <path d="M13.25 2.00195H4.75C3.233 2.00195 2 3.23495 2 4.75195V13.252C2 14.769 3.233 16.002 4.75 16.002H13.25C14.767 16.002 16 14.769 16 13.252V4.75195C16 3.23495 14.767 2.00195 13.25 2.00195ZM8.25 5.43295C8.25 5.01895 8.586 4.68295 9 4.68295C9.414 4.68295 9.75 5.01895 9.75 5.43295V9.57195C9.75 9.98595 9.414 10.322 9 10.322C8.586 10.322 8.25 9.98595 8.25 9.57195V5.43295ZM9 13.419C8.448 13.419 8 12.97 8 12.419C8 11.868 8.448 11.419 9 11.419C9.552 11.419 10 11.868 10 12.419C10 12.97 9.552 13.419 9 13.419Z" fill="#8B8A9E"/>
</svg>