<svg width="20" height="20" viewBox="0 0 20 20" fill="none" xmlns="http://www.w3.org/2000/svg">
<g clipPath="url(#clip0_213_2690)">
<mask id="mask0_213_2690" style="mask-type:luminance" maskUnits="userSpaceOnUse" x="0" y="0" width="20" height="20">
<path d="M20 0H0V20H20V0Z" fill="white"/>
</mask>
<g mask="url(#mask0_213_2690)">
<path d="M9.99976 19.9336C15.4858 19.9336 19.9331 15.4862 19.9331 10.0002C19.9331 4.5142 15.4858 0.0668945 9.99976 0.0668945C4.51371 0.0668945 0.0664062 4.5142 0.0664062 10.0002C0.0664062 15.4862 4.51371 19.9336 9.99976 19.9336Z" fill="#202027"/>
<path d="M6.34563 11.1374C6.7882 10.5289 15.6395 4.16699 15.6395 4.16699L9.66487 12.4652C8.89037 13.3502 7.34139 15.1206 6.17965 13.9588C5.25026 13.0294 5.90306 11.746 6.34563 11.1374Z" fill="#FF6746"/>
<path d="M9.56951 14.1057C9.86151 13.8424 15.0743 11.5479 15.0743 11.5479L11.1226 15.1434C10.6309 15.5121 9.64768 16.2494 9.17943 15.5299C8.80493 14.9544 9.27743 14.3689 9.56951 14.1057Z" fill="#FF6746"/>
<path d="M4.29496 9.60972C4.4356 9.24263 8.03734 4.83057 8.03734 4.83057L6.14998 9.8288C5.87944 10.3806 5.33835 11.4841 4.59442 11.0558C3.99927 10.7131 4.15432 9.97688 4.29496 9.60972Z" fill="#FF6746"/>
<path d="M11.3923 11.2527C11.5832 11.024 15.2487 8.74414 15.2487 8.74414L12.6687 11.865C12.3393 12.1943 11.6805 12.8528 11.2521 12.3631C10.9095 11.9713 11.2014 11.4815 11.3923 11.2527Z" fill="#FF6746"/>
<path d="M7.57713 7.55922C7.73144 7.30433 11.0117 4.49854 11.0117 4.49854L8.93122 7.97233C8.65513 8.34745 8.10299 9.0977 7.6058 8.67804C7.20805 8.34237 7.4228 7.81411 7.57713 7.55922Z" fill="#FF6746"/>
</g>
</g>
<defs>
<clipPath id="clip0_213_2690">
<rect width="20" height="20" fill="white"/>
</clipPath>
</defs>
</svg>
