<svg width="20" height="20" viewBox="0 0 20 20" fill="none" xmlns="http://www.w3.org/2000/svg">
<path d="M19.6984 12.4191C18.3628 17.7763 12.9369 21.0365 7.57913 19.7006C2.22356 18.365 -1.03672 12.9388 0.299516 7.58198C1.6345 2.22422 7.06039 -1.03637 12.4166 0.299246C17.774 1.63486 21.034 7.06168 19.6984 12.4191Z" fill="#F7931A"/>
<path d="M14.4077 8.57551C14.6068 7.2449 13.5937 6.52959 12.2084 6.05241L12.6578 4.24993L11.5606 3.97649L11.1231 5.73147C10.8347 5.6596 10.5384 5.59179 10.244 5.5246L10.6847 3.75805L9.58811 3.48462L9.13842 5.28647C8.89968 5.2321 8.6653 5.17836 8.4378 5.12179L8.43905 5.11617L6.92595 4.73835L6.63408 5.91022C6.63408 5.91022 7.44813 6.09678 7.43094 6.10834C7.87531 6.21928 7.95562 6.51334 7.94218 6.74646L7.43031 8.79988C7.46094 8.80769 7.50063 8.81894 7.54438 8.83644C7.50782 8.82738 7.46876 8.81738 7.42845 8.80769L6.71095 11.6842C6.65657 11.8192 6.51877 12.0217 6.20815 11.9448C6.21908 11.9608 5.41065 11.7458 5.41065 11.7458L4.86597 13.0017L6.29377 13.3576C6.55939 13.4242 6.81969 13.4939 7.07594 13.5595L6.62189 15.3826L7.71782 15.6561L8.1675 13.8523C8.46687 13.9336 8.75749 14.0086 9.04186 14.0792L8.59375 15.8745L9.69092 16.1479L10.145 14.3283C12.0159 14.6823 13.4228 14.5395 14.0149 12.8473C14.4921 11.4849 13.9912 10.6989 13.0068 10.1864C13.7237 10.0211 14.2637 9.54956 14.4077 8.57551ZM11.9009 12.0908C11.5618 13.4533 9.2678 12.7167 8.52405 12.532L9.12655 10.1167C9.87029 10.3024 12.2553 10.6699 11.9009 12.0908ZM12.2403 8.55582C11.9309 9.79518 10.0215 9.1655 9.40217 9.01113L9.94842 6.82053C10.5678 6.9749 12.5625 7.26302 12.2403 8.55582Z" fill="white"/>
</svg>
