<svg xmlns="http://www.w3.org/2000/svg" width="12" height="13" viewBox="0 0 12 13" fill="none">
<path d="M6 0.5C2.691 0.5 0 3.191 0 6.5C0 9.809 2.691 12.5 6 12.5C9.309 12.5 12 9.809 12 6.5C12 3.191 9.309 0.5 6 0.5ZM6.75 9C6.75 9.414 6.414 9.75 6 9.75C5.586 9.75 5.25 9.414 5.25 9V6C5.25 5.586 5.586 5.25 6 5.25C6.414 5.25 6.75 5.586 6.75 6V9ZM6 4.5C5.518 4.5 5.125 4.107 5.125 3.625C5.125 3.143 5.518 2.75 6 2.75C6.482 2.75 6.875 3.143 6.875 3.625C6.875 4.107 6.482 4.5 6 4.5Z" fill="#C7C5D1"/>
</svg>