<?xml version="1.0" encoding="UTF-8"?>
<svg id="_圖層_2" data-name="圖層 2" xmlns="http://www.w3.org/2000/svg" viewBox="0 0 180 180">
  <defs>
    <style>
      .cls-1 {
        fill: #f4f4f4;
      }

      .cls-1, .cls-2, .cls-3, .cls-4 {
        strokeWidth: 0px;
      }

      .cls-2 {
        fill: #14e5cd;
      }

      .cls-3 {
        fill: #152e32;
      }

      .cls-4 {
        fill: #fff;
      }
    </style>
  </defs>
  <g id="_圖層_1-2" data-name="圖層 1">
    <g>
      <circle class="cls-2" cx="90" cy="90" r="90"/>
      <path class="cls-3" d="M90,180c29.23,0,55.19-13.93,71.63-35.52-1.86-6.49-2.75-13.19-2.69-20.22.15-18.66-.15-37.51-6.34-55.21-.52-1.48.18-3.16,1.65-3.7,2.6-.97,4.42-3.15,4.42-5.69,0-3.44-3.33-6.23-7.43-6.23-.12,0-.25,0-.37,0-3.63.15-7.09-1.42-9.45-4.18-6.07-7.09-12.16-11.03-13.32-11.77-12.56-7.96-25.25-12.12-38.07-12.15h0s-.02,0-.02,0-.02,0-.02,0h0c-12.81.03-25.51,4.19-38.07,12.15-1.16.74-7.25,4.68-13.32,11.77-2.36,2.76-5.82,4.33-9.45,4.18-.12,0-.24,0-.37,0-4.1,0-7.43,2.79-7.43,6.23,0,2.54,1.82,4.72,4.42,5.69,1.47.54,2.16,2.23,1.65,3.7-6.2,17.69-6.5,36.55-6.34,55.21.06,7.02-.83,13.73-2.69,20.22,16.44,21.58,42.41,35.52,71.63,35.52Z"/>
      <path class="cls-4" d="M128.4,159.42l-7.92-19.93s.05,0,.08,0c2.37,0,4.29-1.92,4.29-4.29s-1.92-4.29-4.29-4.29-4.29,1.92-4.29,4.29c0,.26.03.5.08.75h-50.63c.04-.24.08-.49.08-.75,0-.09-.02-.18-.03-.26,0-.07-.01-.14-.02-.21-.24-2.14-2.04-3.81-4.24-3.81-2.37,0-4.29,1.92-4.29,4.29s1.87,4.22,4.19,4.28l-9.37,19.93c-2.39,3.56-2.74,7.83-1.42,11.52,11.9,5.8,25.26,9.06,39.39,9.06s27.87-3.35,39.9-9.31c1.22-3.63.84-7.79-1.5-11.27ZM62.19,157.04l3.15-19.24h8.5v35.66c-2.18-.37-3.91-.85-4.93-1.44-5.23-3.02-7.91-9.07-6.72-14.98ZM75.69,137.8h13.6v36.64c-4.92.03-9.77-.2-13.6-.7v-35.94ZM91.13,137.8h13.6v35.59c-3.87.59-8.71.93-13.6,1.02v-36.62ZM111.76,171.46c-1.07.64-2.89,1.17-5.18,1.61v-35.27h9.99l1.57,18.79c1.17,5.8-1.3,11.83-6.38,14.87Z"/>
      <path class="cls-1" d="M91.03,63.56c-.69,0-1.37,0-2.06,0-6.45-.06-11.69,2.79-13.41,11.85-1.39,7.3-7.5,6.95-14.95,8.3-2.34.43-5.6,4.41-6.11,11.4,0,0-.76,3.75,2.36,7.34,1.4,1.61,3.26,9.25,21.86,3.74,1.46-.43,2.4-1.59,3.65-2.23,2.5-1.29,4.08-3.86,4.09-6.67v-.04c0-6.27,3.44-7.83-4.16-11.22-5.9-2.63.94-16.11,7.7-16.27"/>
      <path class="cls-1" d="M88.89,63.56c.69,0,1.37,0,2.06,0,6.45-.06,11.69,2.79,13.41,11.85,1.39,7.3,7.5,6.95,14.95,8.3,2.34.43,7.37,6.18,6.11,11.4,0,0-.22,2.41-3.34,6-1.4,1.61-2.29,10.59-20.89,5.09-1.46-.43-2.4-1.59-3.65-2.23-2.5-1.29-4.08-3.86-4.09-6.67v-.04c0-6.27-3.44-7.83,4.16-11.22,5.9-2.63-.94-16.11-7.7-16.27"/>
      <g>
        <path class="cls-3" d="M64.57,96.02c-1.66.16-2.66,1.31-2.48,3.06.16,1.55,1.23,2.41,2.75,2.37,1.73-.04,2.61-1.14,2.79-2.82-.39-1.65-1.35-2.78-3.05-2.62Z"/>
        <path class="cls-3" d="M76.91,94.18c-1.66.16-2.66,1.31-2.48,3.06.16,1.55,1.23,2.41,2.75,2.37,1.73-.04,2.61-1.14,2.79-2.82-.39-1.65-1.35-2.78-3.05-2.62Z"/>
        <path class="cls-3" d="M101.5,94.18c-1.66.16-2.66,1.31-2.48,3.06.16,1.55,1.23,2.41,2.75,2.37,1.73-.04,2.61-1.14,2.79-2.82-.39-1.65-1.35-2.78-3.05-2.62Z"/>
        <path class="cls-3" d="M71.93,87.14c-1.72-.18-2.87.87-3.01,2.56-.12,1.5.78,2.59,2.28,2.87,1.77.32,2.74-.7,3.2-2.28.06-1.79-.79-2.96-2.48-3.14Z"/>
        <path class="cls-3" d="M115.43,95.31c1.66.16,2.66,1.31,2.48,3.06-.16,1.55-1.23,2.41-2.75,2.37-1.73-.04-2.61-1.14-2.79-2.82.39-1.65,1.35-2.78,3.05-2.62Z"/>
        <path class="cls-3" d="M108.07,87.14c1.72-.18,2.87.87,3.01,2.56.12,1.5-.78,2.59-2.28,2.87-1.77.32-2.74-.7-3.2-2.28-.06-1.79.79-2.96,2.48-3.14Z"/>
      </g>
      <rect class="cls-1" x="55.42" y="51.93" width="18.31" height="23.04" rx="8.87" ry="8.87"/>
      <rect class="cls-3" x="59.08" y="56.1" width="10.98" height="14.71" rx="5.49" ry="5.49"/>
      <rect class="cls-1" x="107" y="51.93" width="18.31" height="23.04" rx="8.87" ry="8.87"/>
      <rect class="cls-3" x="110.66" y="56.1" width="10.98" height="14.71" rx="5.49" ry="5.49"/>
      <path class="cls-1" d="M91.03,116.11c-4.14,0-7.83-2.63-9.19-6.54-.27-.78.14-1.64.92-1.91.78-.28,1.64.14,1.91.92.94,2.71,3.5,4.53,6.36,4.53s5.42-1.82,6.36-4.53c.27-.78,1.12-1.2,1.91-.92.78.27,1.2,1.13.92,1.91-1.36,3.91-5.05,6.54-9.19,6.54Z"/>
      <circle class="cls-1" cx="68.09" cy="59.34" r="3.24"/>
      <circle class="cls-1" cx="119.67" cy="59.34" r="3.24"/>
    </g>
  </g>
</svg>