<svg width="20" height="17" viewBox="0 0 20 17" fill="none" xmlns="http://www.w3.org/2000/svg">
<g clipPath="url(#clip0_1033_15305)">
<path d="M2.36272 16.6273C4.91076 16.6273 6.82563 14.4114 7.9684 12.6603C7.82941 13.0477 7.75218 13.4351 7.75218 13.807C7.75218 14.8298 8.33902 15.5581 9.4972 15.5581C11.0878 15.5581 12.7865 14.1634 13.6667 12.6603C13.6049 12.8773 13.5741 13.0787 13.5741 13.2647C13.5741 13.9775 13.9755 14.4269 14.794 14.4269C17.3729 14.4269 19.9673 9.85551 19.9673 5.85754C19.9673 2.74281 18.3921 0 14.4389 0C7.48968 0 0 8.49187 0 13.9775C0 16.1314 1.1582 16.6273 2.36272 16.6273ZM12.0452 5.51663C12.0452 4.74182 12.4776 4.19946 13.1108 4.19946C13.7285 4.19946 14.1609 4.74182 14.1609 5.51663C14.1609 6.29143 13.7285 6.84928 13.1108 6.84928C12.4776 6.84928 12.0452 6.29143 12.0452 5.51663ZM15.3499 5.51663C15.3499 4.74182 15.7824 4.19946 16.4155 4.19946C17.0332 4.19946 17.4656 4.74182 17.4656 5.51663C17.4656 6.29143 17.0332 6.84928 16.4155 6.84928C15.7824 6.84928 15.3499 6.29143 15.3499 5.51663Z" fill="#AB9FF2"/>
</g>
<defs>
<clipPath id="clip0_1033_15305">
<rect width="20" height="17" fill="white"/>
</clipPath>
</defs>
</svg>
