<svg width="20" height="18" viewBox="0 0 20 18" fill="none" xmlns="http://www.w3.org/2000/svg">
<g clip-path="url(#clip0_1033_15300)">
<path d="M19.897 13.739L16.5954 17.1884C16.5236 17.2633 16.4368 17.3231 16.3403 17.3639C16.2438 17.4048 16.1397 17.4258 16.0345 17.4257H0.383293C0.308612 17.4257 0.235558 17.4045 0.173109 17.3646C0.110659 17.3247 0.0615327 17.2679 0.0317655 17.2012C0.00199848 17.1345 -0.0071125 17.0607 0.00555212 16.989C0.0182167 16.9173 0.0521051 16.8508 0.103054 16.7976L3.40715 13.3481C3.47873 13.2734 3.56529 13.2138 3.66147 13.173C3.75766 13.1321 3.86143 13.111 3.96636 13.1108H19.6167C19.6914 13.1108 19.7644 13.1321 19.8269 13.1719C19.8893 13.2118 19.9384 13.2687 19.9683 13.3354C19.998 13.4021 20.0071 13.4758 19.9945 13.5475C19.9818 13.6192 19.9479 13.6858 19.897 13.739ZM16.5954 6.79271C16.5236 6.71778 16.4368 6.65804 16.3403 6.61721C16.2438 6.5764 16.1397 6.55535 16.0345 6.55541H0.383293C0.308612 6.55541 0.235558 6.57665 0.173109 6.61655C0.110659 6.65646 0.0615327 6.71325 0.0317655 6.77996C0.00199848 6.84669 -0.0071125 6.92044 0.00555212 6.99214C0.0182167 7.06382 0.0521051 7.13036 0.103054 7.18356L3.40715 10.633C3.47873 10.7078 3.56529 10.7674 3.66147 10.8082C3.75766 10.849 3.86143 10.8702 3.96636 10.8703H19.6167C19.6914 10.8703 19.7644 10.8491 19.8269 10.8092C19.8893 10.7693 19.9384 10.7125 19.9683 10.6458C19.998 10.579 20.0071 10.5053 19.9945 10.4336C19.9818 10.3619 19.9479 10.2954 19.897 10.2422L16.5954 6.79271ZM0.383293 4.31495H16.0345C16.1397 4.31499 16.2438 4.29396 16.3403 4.25313C16.4368 4.2123 16.5236 4.15255 16.5954 4.07762L19.897 0.628156C19.9479 0.574964 19.9818 0.508432 19.9945 0.436733C20.0071 0.365034 19.998 0.291293 19.9683 0.22457C19.9384 0.157848 19.8893 0.101049 19.8269 0.0611531C19.7644 0.0212572 19.6914 2.45691e-06 19.6167 0H3.96636C3.86143 0.00017394 3.75766 0.0213265 3.66147 0.0621481C3.56529 0.10297 3.47873 0.162591 3.40715 0.237323L0.103906 3.68679C0.0530061 3.73992 0.0191326 3.8064 0.00643931 3.878C-0.00625404 3.94962 0.00278463 4.02331 0.0324467 4.09C0.0621089 4.15669 0.111105 4.21349 0.173427 4.25345C0.235749 4.29341 0.308685 4.31477 0.383293 4.31495Z" fill="url(#paint0_linear_1033_15300)"/>
</g>
<defs>
<linearGradient id="paint0_linear_1033_15300" x1="1.68823" y1="17.841" x2="17.6224" y2="-0.597272" gradientUnits="userSpaceOnUse">
<stop offset="0.08" stop-color="#9945FF"/>
<stop offset="0.3" stop-color="#8752F3"/>
<stop offset="0.5" stop-color="#5497D5"/>
<stop offset="0.6" stop-color="#43B4CA"/>
<stop offset="0.72" stop-color="#28E0B9"/>
<stop offset="0.97" stop-color="#19FB9B"/>
</linearGradient>
<clipPath id="clip0_1033_15300">
<rect width="20" height="17.4257" fill="white"/>
</clipPath>
</defs>
</svg>
