<svg xmlns="http://www.w3.org/2000/svg" width="21" height="20" viewBox="0 0 21 20" fill="none">
  <path d="M16.3333 5.0022H8.55556C6.87 5.0022 5.5 6.3722 5.5 8.05775V15.8355C5.5 17.5211 6.87 18.8911 8.55556 18.8911H16.3333C18.0189 18.8911 19.3889 17.5211 19.3889 15.8355V8.05775C19.3889 6.3722 18.0189 5.0022 16.3333 5.0022ZM15.8911 9.94886L12.1167 14.9489C11.9744 15.1366 11.7589 15.2555 11.5233 15.2766C11.5 15.2789 11.4756 15.28 11.4511 15.28C11.2411 15.28 11.0378 15.2011 10.8833 15.0566L9.09556 13.39C8.75889 13.0755 8.74 12.5489 9.05333 12.2122C9.36778 11.8755 9.89556 11.8566 10.2311 12.17L11.3433 13.2066L14.5611 8.94442C14.8389 8.57775 15.36 8.50553 15.7289 8.7822C16.0967 9.05997 16.1689 9.5822 15.8911 9.94998V9.94886Z" fill="#FF6746"/>
  <path d="M3.61101 14.1666C3.20546 14.1666 2.84879 13.8688 2.78768 13.4555L1.64434 5.76217C1.39657 4.0955 2.5499 2.53883 4.21657 2.28995L11.9099 1.14661C13.3199 0.939945 14.6632 1.70995 15.1921 3.02328C15.3643 3.44995 15.1577 3.9355 14.731 4.10772C14.2999 4.27995 13.8177 4.07328 13.6466 3.64661C13.4055 3.04995 12.7921 2.69995 12.1543 2.79439L4.46212 3.93883C3.70434 4.05217 3.1799 4.75995 3.29212 5.51661L4.43546 13.2099C4.50323 13.6655 4.18879 14.0899 3.73434 14.1566C3.69212 14.1633 3.65101 14.1655 3.61101 14.1655V14.1666Z" fill="#FF6746"/>
</svg>