<svg width="16" height="16" viewBox="0 0 16 16" fill="none" xmlns="http://www.w3.org/2000/svg">
<path d="M9.53702 8.985L7.54802 8.485L7.14502 10.086L9.13402 10.586C9.34902 10.64 9.57002 10.607 9.75902 10.494C9.94802 10.381 10.082 10.201 10.136 9.987C10.247 9.546 9.97902 9.096 9.53702 8.986V8.985Z" fill="#FF6746"/>
<path d="M9.56406 7.445C9.90906 7.536 10.2661 7.32101 10.3541 6.97301C10.4411 6.62501 10.2291 6.27101 9.88106 6.18301L8.23206 5.76801L7.91406 7.02901L9.56306 7.44401L9.56406 7.445Z" fill="#FF6746"/>
<path d="M8 0C3.589 0 0 3.589 0 8C0 12.411 3.589 16 8 16C12.411 16 16 12.411 16 8C16 3.589 12.411 0 8 0ZM11.808 7.339C11.702 7.758 11.475 8.112 11.178 8.386C11.59 8.93 11.769 9.642 11.59 10.353C11.438 10.955 11.061 11.462 10.528 11.781C10.163 12 9.754 12.112 9.339 12.112C9.165 12.112 8.989 12.087 8.815 12.047L8.655 12.683C8.569 13.023 8.263 13.25 7.928 13.25C7.867 13.25 7.806 13.243 7.744 13.228C7.342 13.126 7.098 12.719 7.2 12.317L7.359 11.687L6.779 11.541L6.62 12.171C6.534 12.511 6.228 12.738 5.893 12.738C5.832 12.738 5.771 12.731 5.709 12.716C5.307 12.614 5.063 12.207 5.165 11.805L5.324 11.175L4.694 11.016C4.292 10.914 4.048 10.507 4.15 10.105C4.252 9.704 4.659 9.462 5.061 9.561L5.691 9.72L6.777 5.403L6.147 5.244C5.745 5.142 5.501 4.735 5.603 4.333C5.705 3.931 6.112 3.689 6.514 3.789L7.144 3.948L7.303 3.318C7.405 2.916 7.812 2.674 8.214 2.774C8.616 2.876 8.86 3.283 8.758 3.685L8.599 4.315L9.18 4.461L9.339 3.83C9.44 3.428 9.849 3.185 10.249 3.286C10.651 3.387 10.895 3.795 10.793 4.196L10.624 4.866C11.544 5.291 12.064 6.323 11.809 7.34L11.808 7.339Z" fill="#FF6746"/>
</svg>
