<svg width="20" height="20" viewBox="0 0 20 20" fill="none" xmlns="http://www.w3.org/2000/svg">
<path d="M11.9212 11.2312L9.43499 10.6062L8.93124 12.6075L11.4175 13.2325C11.6862 13.3 11.9625 13.2587 12.1987 13.1175C12.435 12.9762 12.6025 12.7512 12.67 12.4837C12.8087 11.9325 12.4737 11.37 11.9212 11.2325V11.2312Z" fill="url(#paint0_linear_1415_189)"/>
<path d="M11.955 9.30621C12.3863 9.41996 12.8325 9.15121 12.9425 8.71621C13.0513 8.28121 12.7863 7.83871 12.3513 7.72871L10.29 7.20996L9.8925 8.78621L11.9538 9.30496L11.955 9.30621Z" fill="url(#paint1_linear_1415_189)"/>
<path d="M10 0C4.48625 0 0 4.48625 0 10C0 15.5137 4.48625 20 10 20C15.5137 20 20 15.5137 20 10C20 4.48625 15.5137 0 10 0ZM14.76 9.17375C14.6275 9.6975 14.3438 10.14 13.9725 10.4825C14.4875 11.1625 14.7113 12.0525 14.4875 12.9412C14.2975 13.6937 13.8262 14.3275 13.16 14.7263C12.7037 15 12.1925 15.14 11.6737 15.14C11.4562 15.14 11.2362 15.1087 11.0187 15.0587L10.8187 15.8537C10.7112 16.2787 10.3288 16.5625 9.91 16.5625C9.83375 16.5625 9.7575 16.5537 9.68 16.535C9.1775 16.4075 8.8725 15.8988 9 15.3963L9.19875 14.6088L8.47375 14.4263L8.275 15.2137C8.1675 15.6387 7.785 15.9225 7.36625 15.9225C7.29 15.9225 7.21375 15.9137 7.13625 15.895C6.63375 15.7675 6.32875 15.2588 6.45625 14.7563L6.655 13.9688L5.8675 13.77C5.365 13.6425 5.06 13.1337 5.1875 12.6312C5.315 12.13 5.82375 11.8275 6.32625 11.9512L7.11375 12.15L8.47125 6.75375L7.68375 6.555C7.18125 6.4275 6.87625 5.91875 7.00375 5.41625C7.13125 4.91375 7.64 4.61125 8.1425 4.73625L8.93 4.935L9.12875 4.1475C9.25625 3.645 9.765 3.3425 10.2675 3.4675C10.77 3.595 11.075 4.10375 10.9475 4.60625L10.7487 5.39375L11.475 5.57625L11.6737 4.7875C11.8 4.285 12.3112 3.98125 12.8112 4.1075C13.3137 4.23375 13.6188 4.74375 13.4913 5.245L13.28 6.0825C14.43 6.61375 15.08 7.90375 14.7613 9.175L14.76 9.17375Z" fill="url(#paint2_linear_1415_189)"/>
<defs>
<linearGradient id="paint0_linear_1415_189" x1="12.5002" y1="11.2499" x2="8.75017" y2="12.4999" gradientUnits="userSpaceOnUse">
<stop stop-color="#FEA3BE"/>
<stop offset="0.985034" stop-color="#FFB49B"/>
</linearGradient>
<linearGradient id="paint1_linear_1415_189" x1="12.4999" y1="4.58321" x2="9.99992" y2="8.74988" gradientUnits="userSpaceOnUse">
<stop stop-color="#B283FF"/>
<stop offset="0.604413" stop-color="#FD86FB"/>
</linearGradient>
<linearGradient id="paint2_linear_1415_189" x1="13.3333" y1="0" x2="4.58333" y2="18.3333" gradientUnits="userSpaceOnUse">
<stop stop-color="#B283FF"/>
<stop offset="0.360034" stop-color="#FD83FF"/>
<stop offset="0.777213" stop-color="#FFBF83"/>
<stop offset="1" stop-color="#FFEB83"/>
</linearGradient>
</defs>
</svg>
