<svg width="104" height="21" viewBox="0 0 104 21" fill="none" xmlns="http://www.w3.org/2000/svg">
<mask id="mask0_1_56444" style="mask-type:alpha" maskUnits="userSpaceOnUse" x="0" y="0" width="105" height="21">
<path fill-rule="evenodd" clip-rule="evenodd" d="M1.55424 0H22.9229V2.32605H1.55424V0ZM20.6136 9.20984V11.5359C22.7441 11.5359 24.4768 9.80277 24.4768 7.67233C24.4768 5.54189 22.7437 3.80916 20.6136 3.80916H3.86356C1.73312 3.80839 0 5.54151 0 7.67195C0 9.80239 1.73312 11.5355 3.86356 11.5355V9.20946C3.01564 9.20946 2.32567 8.51948 2.32567 7.67157C2.32567 6.82366 3.01564 6.13406 3.86356 6.13406H20.6136C21.4615 6.13406 22.1511 6.82366 22.1511 7.67157C22.1511 8.51948 21.4615 9.20984 20.6136 9.20984ZM5.54565 7.28301H7.8717V18.1403L5.54565 17.1006V7.28301ZM11.7056 13.975L9.75522 14.5622L11.1279 7.28301H13.4947L12.7503 11.2314L14.6353 10.664L13.0308 19.9952L12.9584 20.4143L12.5262 20.2209L10.7672 19.4346L11.7056 13.975ZM16.7444 7.28301H19.07V17.2958L16.7444 18.3355V7.28301ZM98.2449 14.729C98.8656 14.9823 99.5306 15.109 100.24 15.109C100.911 15.109 101.532 15.0013 102.102 14.786C102.672 14.558 103.128 14.2287 103.47 13.798C103.825 13.3673 104.002 12.8417 104.002 12.221C103.989 11.6003 103.837 11.1063 103.546 10.739C103.255 10.3717 102.856 10.0803 102.349 9.865C101.855 9.64967 101.279 9.45967 100.62 9.295C100.379 9.23167 100.101 9.15567 99.7839 9.067C99.4673 8.96567 99.1949 8.839 98.9669 8.687C98.7389 8.52234 98.6249 8.31334 98.6249 8.06C98.6249 7.70534 98.7643 7.46467 99.0429 7.338C99.3216 7.21134 99.6383 7.148 99.9929 7.148C100.436 7.148 100.804 7.25567 101.095 7.471C101.399 7.67367 101.57 7.97767 101.608 8.383H103.907C103.844 7.34434 103.451 6.559 102.729 6.027C102.007 5.495 101.12 5.229 100.069 5.229C99.3976 5.229 98.7706 5.343 98.1879 5.571C97.6179 5.78634 97.1556 6.10934 96.8009 6.54C96.4589 6.97067 96.2879 7.49 96.2879 8.098C96.2879 8.71867 96.4399 9.219 96.7439 9.599C97.0479 9.96634 97.4596 10.2577 97.9789 10.473C98.4983 10.6757 99.0746 10.853 99.7079 11.005C99.9613 11.0683 100.24 11.1443 100.544 11.233C100.848 11.3217 101.114 11.442 101.342 11.594C101.57 11.746 101.684 11.955 101.684 12.221C101.684 12.563 101.526 12.8163 101.209 12.981C100.905 13.133 100.576 13.209 100.221 13.209C99.8029 13.209 99.4229 13.095 99.0809 12.867C98.7516 12.639 98.5553 12.3223 98.4919 11.917H96.0599C96.0979 12.563 96.3133 13.1267 96.7059 13.608C97.1113 14.0893 97.6243 14.463 98.2449 14.729ZM89.3999 15.109C88.5892 15.109 87.8989 14.938 87.3289 14.596C86.7589 14.2414 86.3219 13.76 86.0179 13.152C85.7139 12.5314 85.5619 11.8284 85.5619 11.043V5.45703H87.9749V10.682C87.9749 11.3787 88.1522 11.9487 88.5069 12.392C88.8742 12.8354 89.4062 13.057 90.1029 13.057C90.8249 13.057 91.3632 12.8417 91.7179 12.411C92.0726 11.9804 92.2499 11.404 92.2499 10.682V5.45703H94.6819V14.881H92.2499V13.779C91.9332 14.2097 91.5152 14.539 90.9959 14.767C90.4892 14.995 89.9572 15.109 89.3999 15.109ZM77.15 14.463C77.872 14.8937 78.727 15.109 79.715 15.109C80.5256 15.109 81.2286 14.9633 81.824 14.672C82.432 14.3807 82.9323 13.9943 83.325 13.513C83.7176 13.0317 84.0026 12.5123 84.18 11.955H81.577C81.387 12.3477 81.1273 12.639 80.798 12.829C80.4813 13.019 80.1013 13.114 79.658 13.114C79.2273 13.114 78.841 13.0253 78.499 12.848C78.1696 12.658 77.9036 12.3983 77.701 12.069C77.511 11.727 77.397 11.3343 77.359 10.891H84.351C84.3763 10.7517 84.3953 10.606 84.408 10.454C84.4206 10.2893 84.427 10.1247 84.427 9.96C84.427 9.03534 84.2243 8.21834 83.819 7.509C83.4263 6.79967 82.8753 6.24234 82.166 5.837C81.4693 5.43167 80.6523 5.229 79.715 5.229C78.765 5.229 77.929 5.438 77.207 5.856C76.485 6.26134 75.9213 6.83134 75.516 7.566C75.1106 8.30067 74.908 9.16834 74.908 10.169C74.908 11.1063 75.1043 11.9487 75.497 12.696C75.8896 13.4433 76.4406 14.0323 77.15 14.463ZM81.919 9.276H77.378C77.4793 8.554 77.7516 8.03467 78.195 7.718C78.6383 7.38867 79.1196 7.224 79.639 7.224C80.247 7.224 80.7726 7.40767 81.216 7.775C81.672 8.14234 81.9063 8.64267 81.919 9.276ZM64.5431 14.8811V1.58105H66.9561V6.55906C67.2854 6.11572 67.7224 5.78639 68.2671 5.57106C68.8244 5.34306 69.3818 5.22906 69.9391 5.22906C71.0284 5.22906 71.9214 5.58372 72.6181 6.29306C73.3148 6.98972 73.6631 8.00306 73.6631 9.33306V14.8811H71.2501V9.65606C71.2501 8.94672 71.0664 8.37672 70.6991 7.94606C70.3444 7.50272 69.8188 7.28106 69.1221 7.28106C68.4254 7.28106 67.8871 7.50272 67.5071 7.94606C67.1398 8.37672 66.9561 8.94672 66.9561 9.65606V14.8811H64.5431ZM53.1876 5.457V19.061H55.6196V13.589C55.873 13.9437 56.2593 14.2857 56.7786 14.615C57.3106 14.9443 57.9756 15.109 58.7736 15.109C59.673 15.109 60.4456 14.8873 61.0916 14.444C61.7503 13.988 62.257 13.38 62.6116 12.62C62.9663 11.86 63.1436 11.0303 63.1436 10.131C63.1436 9.23167 62.9663 8.41467 62.6116 7.68C62.2696 6.93267 61.7693 6.33734 61.1106 5.894C60.4646 5.45067 59.6856 5.229 58.7736 5.229C58.1276 5.229 57.526 5.362 56.9686 5.628C56.424 5.88134 55.968 6.26134 55.6006 6.768V5.457H53.1876ZM59.4576 12.601C59.0776 12.8543 58.6343 12.981 58.1276 12.981C57.6336 12.981 57.1966 12.8607 56.8166 12.62C56.4366 12.3667 56.139 12.0247 55.9236 11.594C55.7083 11.1633 55.6006 10.6883 55.6006 10.169C55.6006 9.62434 55.7083 9.143 55.9236 8.725C56.1516 8.29434 56.4556 7.95867 56.8356 7.718C57.2156 7.47734 57.6463 7.357 58.1276 7.357C58.5836 7.357 59.0016 7.46467 59.3816 7.68C59.7743 7.89534 60.0846 8.212 60.3126 8.63C60.5533 9.03534 60.6736 9.53567 60.6736 10.131C60.6736 10.6503 60.566 11.1253 60.3506 11.556C60.1353 11.9867 59.8376 12.335 59.4576 12.601ZM46.6935 14.881V5.457H49.1065V6.863C49.4358 6.331 49.8538 5.92567 50.3605 5.647C50.8671 5.36834 51.4308 5.229 52.0515 5.229V7.775H51.4055C50.6328 7.775 50.0565 7.95867 49.6765 8.326C49.2965 8.69334 49.1065 9.30767 49.1065 10.169V14.881H46.6935ZM35.6948 14.634C36.5181 14.9507 37.3731 15.109 38.2598 15.109C39.1591 15.109 40.0141 14.9507 40.8248 14.634C41.6481 14.3174 42.3765 13.8614 43.0098 13.266C43.6431 12.6707 44.1435 11.9487 44.5108 11.1C44.8781 10.2514 45.0618 9.29503 45.0618 8.23103C45.0618 7.16703 44.8781 6.21069 44.5108 5.36203C44.1435 4.51336 43.6431 3.79136 43.0098 3.19603C42.3765 2.60069 41.6481 2.14469 40.8248 1.82803C40.0141 1.51136 39.1591 1.35303 38.2598 1.35303C37.3731 1.35303 36.5181 1.51136 35.6948 1.82803C34.8841 2.14469 34.1621 2.60069 33.5288 3.19603C32.8955 3.79136 32.3951 4.51336 32.0278 5.36203C31.6605 6.21069 31.4768 7.16703 31.4768 8.23103C31.4768 9.29503 31.6605 10.2514 32.0278 11.1C32.3951 11.9487 32.8955 12.6707 33.5288 13.266C34.1621 13.8614 34.8841 14.3174 35.6948 14.634ZM40.3118 12.411C39.6531 12.7404 38.9691 12.905 38.2598 12.905C37.5631 12.905 36.8855 12.7404 36.2268 12.411C35.5681 12.069 35.0298 11.5497 34.6118 10.853C34.1938 10.1564 33.9848 9.28236 33.9848 8.23103C33.9848 7.16703 34.1938 6.28669 34.6118 5.59003C35.0298 4.89336 35.5681 4.38036 36.2268 4.05103C36.8855 3.70903 37.5631 3.53803 38.2598 3.53803C38.9691 3.53803 39.6531 3.70903 40.3118 4.05103C40.9705 4.38036 41.5088 4.89336 41.9268 5.59003C42.3448 6.28669 42.5538 7.16703 42.5538 8.23103C42.5538 9.28236 42.3448 10.1564 41.9268 10.853C41.5088 11.5497 40.9705 12.069 40.3118 12.411Z" fill="#262966"/>
</mask>
<g mask="url(#mask0_1_56444)">
<rect x="-3" y="-4" width="110" height="28" fill="url(#paint0_linear_1_56444)"/>
</g>
<defs>
<linearGradient id="paint0_linear_1_56444" x1="-3" y1="10" x2="107" y2="10" gradientUnits="userSpaceOnUse">
<stop offset="0.335" stop-color="#383FCB"/>
<stop offset="0.8" stop-color="#546CF1"/>
<stop offset="1" stop-color="#809BF9"/>
</linearGradient>
</defs>
</svg>
