<svg width="28" height="28" viewBox="0 0 28 28" fill="none" xmlns="http://www.w3.org/2000/svg">
<g clip-path="url(#clip0_1_56422)">
<path d="M20.9122 12.0725H18.5865V23.125L20.9122 22.0853V12.0725Z" fill="white"/>
<path d="M11.5973 19.3517L13.5477 18.7645L12.6092 24.2241L14.3682 25.0104L14.8729 24.7847L16.4774 15.4535L14.5924 16.0209L15.3368 12.0725H12.97L11.5973 19.3517Z" fill="white"/>
<path d="M14.8005 25.2037L14.8728 24.7847L14.3682 25.0103L14.8005 25.2037Z" fill="white"/>
<path d="M9.71387 12.0725H7.38782V21.8901L9.71387 22.9298V12.0725Z" fill="white"/>
<path d="M22.4558 13.9993V16.3254C24.5862 16.3254 26.319 14.5922 26.319 12.4618C26.319 10.3314 24.5858 8.59863 22.4558 8.59863H5.70572C3.57528 8.59787 1.84216 10.331 1.84216 12.4614C1.84216 14.5919 3.57528 16.325 5.70572 16.325V13.9989C4.85781 13.9989 4.16783 13.309 4.16783 12.461C4.16783 11.6131 4.85781 10.9235 5.70572 10.9235H22.4558C23.3037 10.9235 23.9933 11.6131 23.9933 12.461C23.9933 13.309 23.3037 13.9989 22.4558 13.9989V13.9993Z" fill="white"/>
<path d="M24.765 4.78955H3.39636V7.1156H24.765V4.78955Z" fill="white"/>
</g>
<defs>
<clipPath id="clip0_1_56422">
<rect width="24.4772" height="20.4142" fill="white" transform="translate(1.84216 4.78955)"/>
</clipPath>
</defs>
</svg>
